<svg xmlns="http://www.w3.org/2000/svg" xmlns:xlink="http://www.w3.org/1999/xlink" version="1.1" width="1000" height="1000" viewBox="0 0 1000 1000" xml:space="preserve">
<desc>Created with Fabric.js 3.5.0</desc>
<defs>
</defs>
<rect x="0" y="0" width="100%" height="100%" fill="#ffffff"/>
<g transform="matrix(0.8959 0 0 0.8959 431.2462 667.3573)" id="15564">
<path style="stroke: none; stroke-width: 1; stroke-dasharray: none; stroke-linecap: butt; stroke-dashoffset: 0; stroke-linejoin: miter; stroke-miterlimit: 4; is-custom-font: none; font-file-url: none; fill: rgb(82,125,199); fill-rule: nonzero; opacity: 1;" vector-effect="non-scaling-stroke" transform=" translate(-256, -256)" d="M 57.7 193 l 9.4 16.4 c 8.3 14.5 21.9 25.2 38 29.8 L 163 255.7 c 17.2 4.9 29 20.6 29 38.5 v 39.9 c 0 11 6.2 21 16 25.9 s 16 14.9 16 25.9 v 39 c 0 15.6 14.9 26.9 29.9 22.6 c 16.1 -4.6 28.6 -17.5 32.7 -33.8 l 2.8 -11.2 c 4.2 -16.9 15.2 -31.4 30.3 -40 l 8.1 -4.6 c 15 -8.5 24.2 -24.5 24.2 -41.7 v -8.3 c 0 -12.7 -5.1 -24.9 -14.1 -33.9 l -3.9 -3.9 c -9 -9 -21.2 -14.1 -33.9 -14.1 H 257 c -11.1 0 -22.1 -2.9 -31.8 -8.4 l -34.5 -19.7 c -4.3 -2.5 -7.6 -6.5 -9.2 -11.2 c -3.2 -9.6 1.1 -20 10.2 -24.5 l 5.9 -3 c 6.6 -3.3 14.3 -3.9 21.3 -1.5 l 23.2 7.7 c 8.2 2.7 17.2 -0.4 21.9 -7.5 c 4.7 -7 4.2 -16.3 -1.2 -22.8 l -13.6 -16.3 c -10 -12 -9.9 -29.5 0.3 -41.3 l 15.7 -18.3 c 8.8 -10.3 10.2 -25 3.5 -36.7 l -2.4 -4.2 c -3.5 -0.2 -6.9 -0.3 -10.4 -0.3 C 163.1 48 84.4 108.9 57.7 193 z M 464 256 c 0 -36.8 -9.6 -71.4 -26.4 -101.5 L 412 164.8 c -15.7 6.3 -23.8 23.8 -18.5 39.8 l 16.9 50.7 c 3.5 10.4 12 18.3 22.6 20.9 l 29.1 7.3 c 1.2 -9 1.8 -18.2 1.8 -27.5 z M 0 256 a 256 256 0 1 1 512 0 A 256 256 0 1 1 0 256 z" stroke-linecap="round"/>
</g>
<g transform="matrix(0.6042 0 0 0.6042 611.1244 336.1244)" id="359821">
<g style="" vector-effect="non-scaling-stroke">
		<g transform="matrix(6.25 0 0 6.25 -206.6383 -171.5717)">
<path style="stroke: none; stroke-width: 1; stroke-dasharray: none; stroke-linecap: butt; stroke-dashoffset: 0; stroke-linejoin: miter; stroke-miterlimit: 4; is-custom-font: none; font-file-url: none; fill: rgb(79,59,55); fill-rule: nonzero; opacity: 1;" transform=" translate(-30.9379, -36.5485)" d="M 44.99 69.48 s 11.83 -0.7 10 -16.75 s -7.6 -16.33 -9.85 -24.35 c -2.25 -8.02 -2.3 -16.03 -3.38 -16.61 c -0.83 -0.45 -7.32 4.5 -7.32 4.5 s -6.01 5.05 -6.48 3.66 c -0.66 -1.97 5.07 -11.12 5.91 -12.95 c 0.84 -1.83 0.49 -4.83 -3.38 -2.53 C 27.02 6.5 6.27 23.31 6.7 36.4 s 16.05 27.73 16.05 27.73 l 9.43 -9.43 l 12.81 14.78 z" stroke-linecap="round"/>
</g>
		<g transform="matrix(6.25 0 0 6.25 66.8125 246.9321)">
<linearGradient id="SVGID_6" gradientUnits="userSpaceOnUse" gradientTransform="matrix(1 0 0 1 0 0)" x1="68.597" y1="90.462" x2="76.878" y2="115.641">
<stop offset="20.7%" style="stop-color:rgb(172,137,121);stop-opacity: 1"/>
<stop offset="30.9%" style="stop-color:rgb(181,148,130);stop-opacity: 1"/>
<stop offset="48.5%" style="stop-color:rgb(205,176,153);stop-opacity: 1"/>
<stop offset="71.39999999999999%" style="stop-color:rgb(244,221,190);stop-opacity: 1"/>
<stop offset="77.10000000000001%" style="stop-color:rgb(255,234,200);stop-opacity: 1"/>
</linearGradient>
<path style="stroke: none; stroke-width: 1; stroke-dasharray: none; stroke-linecap: butt; stroke-dashoffset: 0; stroke-linejoin: miter; stroke-miterlimit: 4; is-custom-font: none; font-file-url: none; fill: url(#SVGID_6); fill-rule: nonzero; opacity: 1;" transform=" translate(-74.69, -103.5091)" d="M 67.89 90.69 s 10.89 6.29 13.7 8.45 s 7.13 5.63 7.13 5.63 s -1.97 4.97 -3.94 6.19 s -4.5 1.6 -4.5 1.6 s -3.38 3.57 -5.73 3.75 s -4.32 -1.03 -4.32 -1.03 s -3.1 1.13 -4.41 1.03 c -1.31 -0.09 -5.16 -3.1 -5.16 -3.1 l 7.23 -22.52 z" stroke-linecap="round"/>
</g>
		<g transform="matrix(6.25 0 0 6.25 87.9531 36.6573)">
<path style="stroke: none; stroke-width: 1; stroke-dasharray: none; stroke-linecap: butt; stroke-dashoffset: 0; stroke-linejoin: miter; stroke-miterlimit: 4; is-custom-font: none; font-file-url: none; fill: rgb(112,83,76); fill-rule: nonzero; opacity: 1;" transform=" translate(-78.0725, -69.8652)" d="M 51.18 61.6 s 5.16 0.47 7.7 -8.07 c 2.53 -8.54 1.97 -15.3 6.85 -20.37 s 9.67 -6.1 14.92 -6.48 c 5.26 -0.38 25.15 -1.13 30.13 -1.5 c 4.97 -0.38 9.1 -1.69 9.57 -0.66 c 0.35 0.77 -5.54 10.79 -5.54 10.79 s -13.23 0.19 -13.51 3 c -0.28 2.82 9.88 1.29 9.95 2.72 c 0.1 1.97 -8.54 12.95 -11.64 16.05 c -3.1 3.1 -5.63 3.47 -6.66 5.07 s -5.54 15.39 -10.89 20.27 c -5.35 4.88 -12.11 5.26 -12.11 5.26 s 4.04 5.63 2.72 10.42 c -1.31 4.79 -3.66 11.12 -6.48 14.41 c -1.99 2.33 -5.12 4.36 -8.26 2.11 c -3.5 -2.51 -3.28 -7.6 -2.44 -10.7 c 0.84 -3.1 0.38 -5.16 0.38 -5.16 s -5 5.21 -7.98 7.79 c -3.14 2.72 -6.05 7.23 -10.14 2.25 c -4.58 -5.57 0.33 -8.82 2.21 -11.26 c 1.88 -2.44 2.58 -3.47 2.58 -3.47 L 35.78 79.8 l 15.4 -18.2 z" stroke-linecap="round"/>
</g>
		<g transform="matrix(6.25 0 0 6.25 -161.9127 35.1815)">
<path style="stroke: none; stroke-width: 1; stroke-dasharray: none; stroke-linecap: butt; stroke-dashoffset: 0; stroke-linejoin: miter; stroke-miterlimit: 4; is-custom-font: none; font-file-url: none; fill: rgb(255,234,200); fill-rule: nonzero; opacity: 1;" transform=" translate(-38.094, -69.629)" d="M 24.65 52.94 c -2.05 2.05 -7.46 7.58 -0.28 13.77 s 7.39 9.88 9.29 12.48 c 1.91 2.62 3.45 5.14 4.65 6.41 c 1.2 1.27 4.29 3.87 5.28 3.59 c 0.99 -0.28 -1.06 -7.74 -0.56 -8.17 s 5.98 3.38 6.83 2.82 c 0.89 -0.6 -0.99 -7.81 -0.56 -8.17 c 0.42 -0.35 5.33 3.02 5.98 2.46 c 0.92 -0.77 -2.82 -15.7 -3.17 -16.47 c -0.19 -0.41 -5.33 -4.21 -9.71 -7.18 c -3.9 -2.64 -5.49 -3.87 -9.15 -4.36 c -3.38 -0.45 -7.06 1.27 -8.6 2.82 z" stroke-linecap="round"/>
</g>
		<g transform="matrix(6.25 0 0 6.25 -241.7492 40.5788)">
<path style="stroke: none; stroke-width: 1; stroke-dasharray: none; stroke-linecap: butt; stroke-dashoffset: 0; stroke-linejoin: miter; stroke-miterlimit: 4; is-custom-font: none; font-file-url: none; fill: rgb(255,185,3); fill-rule: nonzero; opacity: 1;" transform=" translate(-25.3201, -70.4926)" d="M 23.66 75.75 c 0.42 -1.06 0.92 -2.22 3.66 -4.26 c 2.75 -2.04 7.07 -5.07 7.18 -6.02 c 0.11 -0.88 -5.75 -0.31 -7.51 -0.45 c -1.76 -0.14 -3.75 -0.4 -4.88 -1.31 c -1.01 -0.82 -1.03 -1.6 -1.03 -1.6 s -4.3 2.96 -4.81 6.38 c -0.56 3.8 0.7 6.48 3.24 8.31 s 3.6 2.32 4.26 1.97 c 0.81 -0.42 -0.11 -3.02 -0.11 -3.02 z" stroke-linecap="round"/>
</g>
		<g transform="matrix(6.25 0 0 6.25 -229.1203 49.097)">
<path style="stroke: none; stroke-width: 1; stroke-dasharray: none; stroke-linecap: butt; stroke-dashoffset: 0; stroke-linejoin: miter; stroke-miterlimit: 4; is-custom-font: none; font-file-url: none; fill: rgb(255,142,1); fill-rule: nonzero; opacity: 1;" transform=" translate(-27.3408, -71.8555)" d="M 21.85 74.51 c 0.14 -1.02 0.5 -3.12 2.65 -5.23 c 1.83 -1.8 5 -4.29 5.88 -4.29 h 2.46 s -0.7 1.44 -1.97 2.25 s -2.87 2.05 -4.89 3.84 c -2.11 1.87 -2.29 4.61 -2.29 4.61 s 0.77 2.22 0.18 2.96 c -0.53 0.63 -2.16 -3.11 -2.02 -4.14 z" stroke-linecap="round"/>
</g>
		<g transform="matrix(6.25 0 0 6.25 -204.0457 -22.9647)">
<path style="stroke: none; stroke-width: 1; stroke-dasharray: none; stroke-linecap: butt; stroke-dashoffset: 0; stroke-linejoin: miter; stroke-miterlimit: 4; is-custom-font: none; font-file-url: none; fill: rgb(48,47,47); fill-rule: nonzero; opacity: 1;" transform=" translate(-31.3527, -60.3257)" d="M 29.01 61.25 c 0.08 0.66 0.6 1.97 2.43 1.58 c 1.52 -0.32 2.64 -2.39 2.15 -3.87 c -0.4 -1.19 -1.37 -1.44 -2.04 -1.02 c -0.67 0.42 -2.72 1.87 -2.54 3.31 z" stroke-linecap="round"/>
</g>
		<g transform="matrix(6.25 0 0 6.25 69.1128 294.3126)">
<path style="stroke: none; stroke-width: 1; stroke-dasharray: none; stroke-linecap: butt; stroke-dashoffset: 0; stroke-linejoin: miter; stroke-miterlimit: 4; is-custom-font: none; font-file-url: none; fill: rgb(112,83,76); fill-rule: nonzero; opacity: 1;" transform=" translate(-75.058, -111.09)" d="M 79.95 111.34 c -0.22 0.13 -1.83 2.96 -4.79 3.71 s -4.13 -0.75 -4.74 -0.75 s -2.7 1.29 -4.62 1.1 c -1.5 -0.15 -3.97 -2.28 -3.97 -2.28 l -1.03 1.64 s 2.39 2.58 5.07 2.72 c 2.67 0.14 4.36 -1.03 4.36 -1.03 s 2.63 1.34 5.4 0.8 c 3.85 -0.75 5.3 -4.13 5.3 -4.13 s 3.19 -0.33 5.3 -1.92 c 2.11 -1.6 4.01 -5.77 2.6 -6.43 s -2.18 2.86 -3.87 4.22 s -4.4 1.98 -5.01 2.35 z" stroke-linecap="round"/>
</g>
		<g transform="matrix(6.25 0 0 6.25 -191.5714 298.6438)">
<path style="stroke: none; stroke-width: 1; stroke-dasharray: none; stroke-linecap: butt; stroke-dashoffset: 0; stroke-linejoin: miter; stroke-miterlimit: 4; is-custom-font: none; font-file-url: none; fill: rgb(255,185,3); fill-rule: nonzero; opacity: 1;" transform=" translate(-33.3486, -111.783)" d="M 25.89 111.47 c -0.52 -1.12 1.6 -6.65 7.23 -6.46 s 8.21 4.36 7.7 8.49 c -0.52 4.13 -3.24 5.44 -3.89 4.97 c -0.66 -0.47 -1.36 -3.43 -1.36 -3.43 l -2.86 -3.61 c -0.02 0.01 -5.74 2.34 -6.82 0.04 z" stroke-linecap="round"/>
</g>
		<g transform="matrix(6.25 0 0 6.25 -60.2911 333.963)">
<path style="stroke: none; stroke-width: 1; stroke-dasharray: none; stroke-linecap: butt; stroke-dashoffset: 0; stroke-linejoin: miter; stroke-miterlimit: 4; is-custom-font: none; font-file-url: none; fill: rgb(255,185,3); fill-rule: nonzero; opacity: 1;" transform=" translate(-54.3534, -117.4341)" d="M 47.66 117.85 c -0.77 -1.5 0.87 -4.79 3.19 -5.99 c 2.87 -1.49 4.99 -1.57 8.26 1.07 c 4.39 3.54 0.94 9.84 -1.01 10.65 c -2.71 1.13 -2.04 0.01 -1.99 -1.35 c 0.05 -1.36 -1.22 -4.83 -1.22 -4.83 l -7.23 0.45 z" stroke-linecap="round"/>
</g>
		<g transform="matrix(6.25 0 0 6.25 -198.634 311.468)">
<path style="stroke: none; stroke-width: 1; stroke-dasharray: none; stroke-linecap: butt; stroke-dashoffset: 0; stroke-linejoin: miter; stroke-miterlimit: 4; is-custom-font: none; font-file-url: none; fill: rgb(244,130,30); fill-rule: nonzero; opacity: 1;" transform=" translate(-32.2186, -113.8349)" d="M 36.92 112.46 c 0.4 1.49 0.77 5.91 -0.21 5.84 c -0.66 -0.05 -1.53 -2.63 -1.9 -3.61 c -0.37 -0.98 -2.75 -2.42 -3.64 -2.46 c -0.89 -0.05 -3.97 0.59 -4.06 0 c -0.19 -1.16 3.5 -2.91 4.95 -2.86 c 1.27 0.03 4.43 1.5 4.86 3.09 z" stroke-linecap="round"/>
</g>
		<g transform="matrix(6.25 0 0 6.25 -70.7506 347.3135)">
<path style="stroke: none; stroke-width: 1; stroke-dasharray: none; stroke-linecap: butt; stroke-dashoffset: 0; stroke-linejoin: miter; stroke-miterlimit: 4; is-custom-font: none; font-file-url: none; fill: rgb(244,130,30); fill-rule: nonzero; opacity: 1;" transform=" translate(-52.6799, -119.5702)" d="M 47.62 117.63 c 0.05 1.07 2.96 0.33 4.13 0.47 c 1.17 0.14 2.65 0.72 3.31 2.08 c 0.31 0.64 0.59 3.73 1.24 3.78 c 1.22 0.09 1.55 -4.11 1.41 -4.49 c -0.42 -1.14 -2.06 -3.97 -5.26 -4.28 c -1.69 -0.18 -4.86 1.88 -4.83 2.44 z" stroke-linecap="round"/>
</g>
</g>
</g>
</svg>